<svg version="1.1" id="Layer_1" xmlns="http://www.w3.org/2000/svg" xmlns:xlink="http://www.w3.org/1999/xlink" x="0px" y="0px"
	 width="100%" viewBox="0 0 497 510" enable-background="new 0 0 497 510" xml:space="preserve">
<path fill="#FEFEFE" opacity="1.000000" stroke="none" 
	d="
M279.000000,511.000000 
	C186.000015,511.000000 93.500046,511.000000 1.000050,511.000000 
	C1.000033,341.000061 1.000033,171.000122 1.000017,1.000141 
	C166.666565,1.000094 332.333130,1.000094 497.999756,1.000047 
	C497.999847,170.999863 497.999847,340.999725 497.999939,510.999786 
	C425.166656,511.000000 352.333344,511.000000 279.000000,511.000000 
M79.777718,241.768173 
	C78.769669,257.034546 78.766273,272.276825 80.713074,287.704803 
	C81.515282,287.471588 81.772591,287.054962 81.909714,286.601959 
	C86.564865,271.222168 93.823135,257.134216 103.580452,243.653381 
	C108.053650,238.682083 112.526855,233.710770 117.586815,228.486389 
	C120.765091,225.793793 123.943375,223.101196 127.759789,220.132767 
	C129.616776,218.824142 131.473755,217.515518 134.003220,216.031158 
	C139.053772,213.383774 144.104324,210.736389 149.889526,208.051056 
	C152.960876,206.888351 156.032211,205.725662 159.912628,204.400970 
	C166.946030,202.844925 173.979446,201.288879 181.865692,199.792130 
	C186.832901,199.474747 191.796738,198.963852 196.767975,198.877258 
	C210.207657,198.643127 223.650497,198.589417 237.997131,198.628616 
	C254.925125,198.791611 271.872986,199.454468 288.326721,194.066452 
	C311.930084,186.337189 330.168915,172.204117 342.111664,149.346802 
	C349.442535,136.238098 352.980896,122.235039 352.797882,107.383812 
	C342.103607,110.287781 332.055145,113.016365 321.187378,115.677765 
	C319.072632,115.965332 316.957855,116.252907 314.122620,116.503105 
	C313.416382,116.635742 312.710114,116.768372 311.070953,116.784592 
	C304.390015,117.049644 297.709076,117.314697 290.357635,117.339211 
	C289.895844,117.415855 289.434021,117.492508 288.071289,117.324844 
	C259.241150,117.316338 230.400314,116.813637 201.583954,117.439407 
	C173.214630,118.055473 147.686783,127.552574 125.904472,145.903931 
	C119.651794,151.171753 114.650597,157.925034 108.778008,164.602615 
	C107.133652,166.641068 105.489296,168.679520 103.288727,171.113754 
	C101.802986,173.644653 100.317245,176.175552 98.287384,179.145477 
	C96.671768,182.390060 95.056152,185.634628 93.022133,189.363281 
	C91.943008,192.122162 90.863884,194.881042 89.294189,198.181534 
	C87.555435,203.785950 85.816681,209.390366 83.807159,215.741882 
	C83.063118,220.137894 82.319077,224.533920 81.209831,229.583099 
	C80.827789,233.386398 80.445747,237.189682 79.777718,241.768173 
M102.054649,417.837891 
	C105.087852,421.530121 108.121048,425.222382 111.391541,429.521942 
	C113.300995,431.337067 115.210442,433.152191 117.405136,435.559723 
	C121.555473,438.737976 125.705803,441.916229 130.244202,445.651917 
	C153.341812,461.577942 198.926559,471.808868 213.592865,464.137054 
	C212.324051,463.404114 211.147781,462.845154 210.102493,462.101929 
	C201.192764,455.767151 191.838043,449.950989 183.533493,442.899658 
	C173.366989,434.267365 167.185822,422.461914 161.113205,409.987579 
	C159.600906,405.946167 158.088608,401.904755 156.455078,397.190735 
	C156.020996,396.446930 155.586914,395.703125 155.151169,394.086639 
	C154.256363,389.063599 153.361557,384.040588 152.544724,378.258301 
	C152.399796,377.511505 152.254868,376.764679 152.195663,375.081421 
	C151.987457,369.385101 151.779251,363.688751 151.755493,357.082153 
	C151.684158,353.043091 151.612823,349.003998 151.731842,344.069489 
	C151.716766,340.404724 151.701691,336.739929 152.088211,332.608826 
	C152.395020,332.337646 152.701843,332.066498 153.782730,331.809814 
	C167.065186,330.187531 180.315292,328.171448 193.641098,327.076935 
	C203.037704,326.305176 212.537033,326.784302 222.886520,326.878845 
	C225.921219,326.823944 228.955902,326.769043 232.783524,326.888733 
	C233.858948,326.832550 234.934387,326.776367 236.746460,326.881470 
	C237.494324,326.829163 238.242188,326.776855 239.892441,326.897095 
	C243.255157,326.845795 246.617889,326.794525 250.882172,326.912201 
	C257.924255,325.967041 264.966339,325.021881 272.812164,324.137482 
	C279.554749,321.782135 286.297333,319.426788 293.751892,316.974121 
	C300.023865,312.690369 306.295807,308.406586 313.228394,304.130585 
	C313.935120,303.716553 314.743835,303.413696 315.333771,302.872406 
	C334.308960,285.460968 345.273804,263.843109 348.988708,238.464432 
	C349.439087,235.387512 349.510864,232.255188 349.720551,229.620453 
	C339.062256,234.189224 329.054749,238.479034 318.193054,242.802689 
	C315.110016,243.346313 312.027008,243.889923 308.182709,244.341782 
	C303.785370,244.918533 299.388031,245.495285 294.059204,245.976120 
	C287.694855,246.128189 281.330536,246.280258 274.194244,246.244629 
	C273.141296,246.289612 272.088318,246.334595 270.236786,246.166107 
	C269.146210,246.240723 268.055603,246.315353 266.096222,246.228409 
	C263.742767,246.279480 261.389313,246.330566 258.182465,246.164185 
	C256.430084,246.236237 254.677704,246.308289 252.014328,246.224472 
	C247.008545,246.306839 242.002762,246.389206 236.283569,246.259674 
	C235.543900,246.288513 234.804245,246.317352 233.149185,246.123535 
	C229.068176,246.197586 224.987167,246.271637 219.990311,246.219482 
	C212.326324,246.302933 204.662323,246.386383 196.147522,246.268738 
	C190.095520,246.897842 184.043518,247.526962 177.182495,248.092407 
	C169.801788,250.036270 162.245758,251.484680 155.074997,254.021851 
	C137.378342,260.283325 121.988609,270.160339 109.316216,285.130280 
	C105.560402,290.419403 101.804596,295.708557 97.634308,301.486359 
	C97.007339,303.292603 96.380363,305.098816 95.076721,306.996399 
	C93.737900,309.663727 92.399078,312.331055 90.717072,315.547211 
	C90.458427,316.358063 90.199776,317.168945 89.433533,318.494049 
	C88.802658,320.636353 88.171776,322.778625 87.132790,325.479858 
	C85.810440,331.314789 84.488083,337.149750 83.031502,343.854706 
	C83.009659,345.904938 82.987816,347.955170 82.831879,350.827637 
	C82.904488,356.114075 82.541885,361.449951 83.136055,366.677094 
	C84.582298,379.400421 87.216446,391.848022 94.102470,403.644714 
	C94.631523,404.818726 95.160583,405.992737 95.878487,407.850311 
	C97.887779,410.958649 99.897079,414.066986 102.054649,417.837891 
M416.441193,130.445923 
	C421.032684,112.803047 435.229950,106.951782 450.976807,103.751556 
	C441.875977,98.895912 431.946442,96.003319 425.640289,89.562889 
	C419.224396,83.010361 416.377411,72.963272 412.522980,65.518990 
	C408.714386,72.926407 405.924011,83.020660 399.501099,89.531364 
	C393.092224,96.027817 383.043854,98.933830 374.612549,103.402580 
	C374.466858,103.245811 374.723419,103.737648 375.116699,103.901711 
	C376.031036,104.283112 376.993256,104.612793 377.967529,104.778038 
	C394.511780,107.584000 405.333221,116.745407 409.746796,133.990402 
	C410.362183,136.360748 410.977570,138.731094 411.592957,141.101440 
	C412.240753,141.099899 412.888580,141.098358 413.536377,141.096817 
	C414.362488,137.733063 415.188629,134.369293 416.441193,130.445923 
z"/>
<path fill="#4D5FEF" opacity="1.000000" stroke="none" 
	d="
M237.092087,198.464142 
	C223.650497,198.589417 210.207657,198.643127 196.767975,198.877258 
	C191.796738,198.963852 186.832901,199.474747 181.436508,199.389587 
	C179.892685,192.758667 174.613983,188.762222 167.914398,190.201706 
	C163.609177,191.126740 160.736816,189.336105 157.286057,187.730438 
	C153.643280,186.035446 149.602707,185.189026 145.725555,184.005920 
	C142.300491,182.960800 138.841614,182.023254 135.432693,180.929153 
	C130.462402,179.333939 125.535034,177.605270 120.568130,175.999161 
	C115.006088,174.200562 109.420364,172.475204 103.844940,170.717972 
	C105.489296,168.679520 107.133652,166.641068 109.355621,164.300812 
	C117.390137,165.538208 124.844315,167.090729 132.304810,168.612289 
	C137.942261,169.762039 143.549011,171.176712 149.242218,171.902176 
	C153.674500,172.466965 158.443420,170.246170 162.561905,173.650589 
	C162.949921,173.971344 163.865204,173.843414 164.471405,173.682129 
	C171.529709,171.804367 178.598007,169.956207 185.604416,167.898514 
	C186.874527,167.525497 188.040253,166.389679 188.972321,165.352692 
	C191.360168,162.696014 193.589355,159.896744 196.815216,156.038254 
	C196.694687,153.629974 197.867004,150.341232 202.958313,151.037277 
	C213.794373,152.518646 219.823654,144.674164 227.072586,139.053223 
	C228.211639,138.169983 230.321030,137.482224 231.538330,137.924515 
	C240.470840,141.169937 243.056946,140.663696 249.961945,133.472717 
	C249.313248,132.090698 248.637497,130.651062 247.819336,128.908020 
	C249.943100,127.440826 251.860168,126.116425 253.777237,124.792015 
	C254.193741,125.034698 254.610245,125.277374 255.026749,125.520058 
	C254.575287,127.874420 254.123840,130.228775 253.672394,132.583145 
	C253.936218,132.894302 254.200043,133.205460 254.463867,133.516632 
	C257.615356,130.861038 260.719482,128.145905 263.944275,125.582542 
	C265.054535,124.700012 266.465607,124.195961 267.739258,123.519012 
	C267.928223,124.851730 268.128845,126.182907 268.303375,127.517509 
	C268.575256,129.596252 268.829346,131.677292 269.200867,134.630905 
	C275.865417,130.309525 281.407166,126.716179 287.023193,123.074677 
	C289.186768,128.359695 290.244904,128.859528 295.373688,127.332634 
	C296.964966,126.858902 298.531403,125.997238 300.131561,125.940262 
	C301.872284,125.878281 304.047943,126.010437 305.325226,126.985962 
	C311.661621,131.825439 319.679535,129.371964 321.562500,121.675728 
	C322.027222,119.776276 321.875183,117.725929 322.006653,115.744957 
	C332.055145,113.016365 342.103607,110.287781 352.797882,107.383812 
	C352.980896,122.235039 349.442535,136.238098 341.577454,149.660675 
	C338.049316,149.430878 335.738831,148.547653 334.282471,145.180420 
	C332.523895,141.114380 328.644684,140.851517 325.396667,144.208923 
	C322.913513,146.775696 320.811737,147.952377 318.037354,144.754120 
	C317.616943,144.269455 316.582886,144.317078 315.860718,144.125900 
	C313.330109,150.786087 309.534302,151.431656 304.053772,146.977234 
	C302.684296,145.864166 299.453918,145.504379 297.975464,146.355621 
	C293.867523,148.720901 290.604706,152.891891 286.313995,154.516129 
	C280.978119,156.536011 275.145020,159.823349 269.188416,156.943985 
	C264.922028,154.881607 261.594391,155.478058 258.362366,158.399918 
	C256.775055,159.834885 255.261276,161.405960 253.980591,163.115051 
	C250.081421,168.318542 246.235641,169.608505 239.737579,168.220230 
	C238.160828,167.883362 235.750000,168.208481 234.711166,169.232239 
	C232.089737,171.815628 229.731674,174.791412 227.844223,177.953827 
	C226.398026,180.376938 227.352386,184.263077 223.302887,185.095932 
	C223.171387,185.122971 223.116180,185.698898 223.088242,186.024353 
	C222.800430,189.376678 229.847412,196.456070 233.207809,195.674988 
	C236.102661,195.002136 236.839920,196.081558 237.092087,198.464142 
z"/>
<path fill="#485AEE" opacity="1.000000" stroke="none" 
	d="
M321.597015,115.711365 
	C321.875183,117.725929 322.027222,119.776276 321.562500,121.675728 
	C319.679535,129.371964 311.661621,131.825439 305.325226,126.985962 
	C304.047943,126.010437 301.872284,125.878281 300.131561,125.940262 
	C298.531403,125.997238 296.964966,126.858902 295.373688,127.332634 
	C290.244904,128.859528 289.186768,128.359695 287.023193,123.074677 
	C281.407166,126.716179 275.865417,130.309525 269.200867,134.630905 
	C268.829346,131.677292 268.575256,129.596252 268.303375,127.517509 
	C268.128845,126.182907 267.928223,124.851730 267.739258,123.519012 
	C266.465607,124.195961 265.054535,124.700012 263.944275,125.582542 
	C260.719482,128.145905 257.615356,130.861038 254.463867,133.516632 
	C254.200043,133.205460 253.936218,132.894302 253.672394,132.583145 
	C254.123840,130.228775 254.575287,127.874420 255.026749,125.520058 
	C254.610245,125.277374 254.193741,125.034698 253.777237,124.792015 
	C251.860168,126.116425 249.943100,127.440826 247.819336,128.908020 
	C248.637497,130.651062 249.313248,132.090698 249.961945,133.472717 
	C243.056946,140.663696 240.470840,141.169937 231.538330,137.924515 
	C230.321030,137.482224 228.211639,138.169983 227.072586,139.053223 
	C219.823654,144.674164 213.794373,152.518646 202.958313,151.037277 
	C197.867004,150.341232 196.694687,153.629974 196.815216,156.038254 
	C193.589355,159.896744 191.360168,162.696014 188.972321,165.352692 
	C188.040253,166.389679 186.874527,167.525497 185.604416,167.898514 
	C178.598007,169.956207 171.529709,171.804367 164.471405,173.682129 
	C163.865204,173.843414 162.949921,173.971344 162.561905,173.650589 
	C158.443420,170.246170 153.674500,172.466965 149.242218,171.902176 
	C143.549011,171.176712 137.942261,169.762039 132.304810,168.612289 
	C124.844315,167.090729 117.390137,165.538208 109.504410,163.998108 
	C114.650597,157.925034 119.651794,151.171753 125.904472,145.903931 
	C147.686783,127.552574 173.214630,118.055473 201.583954,117.439407 
	C230.400314,116.813637 259.241150,117.316338 288.531281,117.765808 
	C289.217926,119.009689 289.444550,119.812599 289.671173,120.615517 
	C289.932739,120.601341 290.194275,120.587173 290.455811,120.572998 
	C290.646576,119.575249 290.837372,118.577499 291.028137,117.579750 
	C297.709076,117.314697 304.390015,117.049644 311.545288,117.228905 
	C312.533447,118.380234 313.047211,119.087242 313.560974,119.794250 
	C313.988342,118.709663 314.415741,117.625069 314.843109,116.540482 
	C316.957855,116.252907 319.072632,115.965332 321.597015,115.711365 
z"/>
<path fill="#5465F2" opacity="1.000000" stroke="none" 
	d="
M237.544617,198.546387 
	C236.839920,196.081558 236.102661,195.002136 233.207809,195.674988 
	C229.847412,196.456070 222.800430,189.376678 223.088242,186.024353 
	C223.116180,185.698898 223.171387,185.122971 223.302887,185.095932 
	C227.352386,184.263077 226.398026,180.376938 227.844223,177.953827 
	C229.731674,174.791412 232.089737,171.815628 234.711166,169.232239 
	C235.750000,168.208481 238.160828,167.883362 239.737579,168.220230 
	C246.235641,169.608505 250.081421,168.318542 253.980591,163.115051 
	C255.261276,161.405960 256.775055,159.834885 258.362366,158.399918 
	C261.594391,155.478058 264.922028,154.881607 269.188416,156.943985 
	C275.145020,159.823349 280.978119,156.536011 286.313995,154.516129 
	C290.604706,152.891891 293.867523,148.720901 297.975464,146.355621 
	C299.453918,145.504379 302.684296,145.864166 304.053772,146.977234 
	C309.534302,151.431656 313.330109,150.786087 315.860718,144.125900 
	C316.582886,144.317078 317.616943,144.269455 318.037354,144.754120 
	C320.811737,147.952377 322.913513,146.775696 325.396667,144.208923 
	C328.644684,140.851517 332.523895,141.114380 334.282471,145.180420 
	C335.738831,148.547653 338.049316,149.430878 341.414032,149.980865 
	C330.168915,172.204117 311.930084,186.337189 288.326721,194.066452 
	C271.872986,199.454468 254.925125,198.791611 237.544617,198.546387 
z"/>
<path fill="#7080F9" opacity="1.000000" stroke="none" 
	d="
M221.990509,326.704956 
	C212.537033,326.784302 203.037704,326.305176 193.641098,327.076935 
	C180.315292,328.171448 167.065186,330.187531 153.393921,331.425232 
	C152.998306,327.965118 151.681534,325.603088 148.414368,326.224030 
	C144.692078,326.931488 146.197128,329.799866 146.862625,332.101898 
	C146.951843,332.410583 146.947540,332.746277 146.793365,333.089935 
	C146.600174,333.110413 146.211807,333.098358 145.916824,332.896027 
	C142.948105,327.390442 137.149628,325.160004 131.632767,327.108673 
	C129.965729,327.697510 128.101578,327.933746 126.321953,327.961334 
	C119.939621,328.060333 113.511246,327.537048 107.183243,328.131775 
	C100.885246,328.723694 94.766594,329.986603 89.488335,325.108337 
	C89.107094,324.755981 88.202278,324.970154 87.540894,324.920929 
	C88.171776,322.778625 88.802658,320.636353 90.099937,318.292114 
	C97.752068,318.388336 104.640686,322.569366 111.585930,319.770874 
	C118.325722,317.055145 125.132225,317.067169 132.098511,316.927856 
	C135.370468,316.862427 138.678299,316.244019 141.878494,315.488953 
	C146.625641,314.368896 151.096771,313.351685 155.420883,317.035095 
	C156.904648,318.299011 159.843002,319.352661 161.415359,318.730255 
	C165.871628,316.966309 169.733475,317.645325 174.310501,318.525787 
	C180.859924,319.785645 187.813431,318.945343 194.594376,319.001160 
	C196.091812,319.013489 197.693222,318.677979 199.068863,319.092712 
	C205.291031,320.968506 209.503342,318.074707 213.238998,313.612335 
	C217.777054,308.191437 222.541412,302.954224 226.936371,297.421844 
	C228.952179,294.884369 231.536072,291.922913 231.754639,288.996307 
	C232.421844,280.062653 234.941818,272.018616 240.101761,264.747803 
	C240.482544,264.211243 241.020172,263.532959 240.958099,262.979675 
	C240.709778,260.765686 241.022202,257.750702 239.722305,256.538452 
	C236.499985,253.533447 235.308792,250.541946 236.996979,246.471558 
	C242.002762,246.389206 247.008545,246.306839 252.470245,246.457077 
	C252.926147,246.689682 252.918365,247.000351 252.598831,247.152924 
	C249.277496,248.310486 247.322220,249.791306 248.536194,253.515106 
	C248.885742,254.587311 248.171722,256.078308 247.755676,257.313446 
	C246.815063,260.105957 246.504913,262.412476 248.939102,265.016724 
	C250.058884,266.214752 249.786041,269.461182 249.123108,271.435822 
	C247.291931,276.890289 244.936737,282.169891 242.759384,287.506653 
	C241.833755,289.775360 240.872009,292.031036 239.862259,294.263489 
	C236.769272,301.101776 228.679672,305.261078 229.279053,314.161743 
	C229.347839,315.183075 228.019257,316.465149 227.079910,317.352570 
	C225.207184,319.121765 223.154694,320.700745 221.173172,322.356232 
	C221.443420,323.804443 221.716965,325.254700 221.990509,326.704956 
z"/>
<path fill="#7F8DFB" opacity="1.000000" stroke="none" 
	d="
M161.197159,410.711975 
	C167.185822,422.461914 173.366989,434.267365 183.533493,442.899658 
	C191.838043,449.950989 201.192764,455.767151 210.102493,462.101929 
	C211.147781,462.845154 212.324051,463.404114 213.592865,464.137054 
	C198.926559,471.808868 153.341812,461.577942 130.337585,445.176453 
	C136.536102,438.324677 142.286484,431.549438 148.862091,425.702240 
	C153.840576,421.275269 159.242157,417.504700 161.197159,410.711975 
z"/>
<path fill="#6577F7" opacity="1.000000" stroke="none" 
	d="
M95.753395,306.905060 
	C96.380363,305.098816 97.007339,303.292603 98.243988,301.242065 
	C102.555099,300.720367 106.262589,300.506439 109.956795,300.153534 
	C120.646805,299.132416 131.319824,297.912415 142.021530,297.040833 
	C152.562714,296.182312 163.195847,296.162201 173.666656,294.821655 
	C182.080750,293.744385 189.996964,290.279449 193.075409,281.475006 
	C195.751816,273.820435 199.722794,267.120514 204.525131,260.739441 
	C206.861404,257.635101 205.580276,254.896439 202.222046,254.363678 
	C197.115295,253.553543 196.710159,250.431915 196.998337,246.469833 
	C204.662323,246.386383 212.326324,246.302933 220.461456,246.473297 
	C220.932602,246.727112 220.986877,247.106537 220.991913,247.329422 
	C220.996964,247.552307 221.000610,247.998169 221.000259,248.429138 
	C221.367157,251.475723 222.201660,254.128891 221.995102,256.698364 
	C221.662933,260.829895 222.083878,266.796753 219.646103,268.654633 
	C212.041016,274.450500 207.265701,282.022430 202.622040,289.907776 
	C201.307739,292.139618 199.755264,294.388153 199.131668,296.837677 
	C197.759247,302.228607 194.720428,304.983917 189.115189,304.995850 
	C181.373535,305.012360 173.566147,305.637115 165.905762,304.847900 
	C154.877991,303.711792 143.978073,308.912262 132.962708,305.095581 
	C131.892151,304.724640 130.419281,305.617950 129.115707,305.798340 
	C123.723396,306.544434 118.337631,307.672699 112.924171,307.839355 
	C107.215576,308.015076 101.478195,307.255829 95.753395,306.905060 
z"/>
<path fill="#4F61F0" opacity="1.000000" stroke="none" 
	d="
M409.620026,133.195190 
	C405.333221,116.745407 394.511780,107.584000 377.967529,104.778038 
	C376.993256,104.612793 376.031036,104.283112 375.116699,103.901711 
	C374.723419,103.737648 374.466858,103.245811 374.612549,103.402580 
	C383.043854,98.933830 393.092224,96.027817 399.501099,89.531364 
	C405.924011,83.020660 408.714386,72.926407 412.522980,65.518990 
	C416.377411,72.963272 419.224396,83.010361 425.640289,89.562889 
	C431.946442,96.003319 441.875977,98.895912 450.976807,103.751556 
	C435.229950,106.951782 421.032684,112.803047 415.839233,130.725403 
	C413.364868,131.735001 411.492462,132.465103 409.620026,133.195190 
z"/>
<path fill="#5A6CF5" opacity="1.000000" stroke="none" 
	d="
M109.905708,284.777924 
	C121.988609,270.160339 137.378342,260.283325 155.074997,254.021851 
	C162.245758,251.484680 169.801788,250.036270 177.589035,248.513824 
	C179.616318,252.081604 181.237045,255.227966 183.300705,259.234192 
	C182.999268,259.658905 181.900223,261.066498 180.950806,262.568634 
	C176.193665,270.095520 168.300583,274.582947 163.197586,282.156952 
	C157.143356,291.142792 145.723343,288.366638 136.353424,289.604980 
	C133.333649,290.004089 130.235397,289.878479 127.241829,290.393097 
	C119.890495,291.656860 111.502411,291.942902 109.905708,284.777924 
z"/>
<path fill="#6072F6" opacity="1.000000" stroke="none" 
	d="
M109.610962,284.954102 
	C111.502411,291.942902 119.890495,291.656860 127.241829,290.393097 
	C130.235397,289.878479 133.333649,290.004089 136.353424,289.604980 
	C145.723343,288.366638 157.143356,291.142792 163.197586,282.156952 
	C168.300583,274.582947 176.193665,270.095520 180.950806,262.568634 
	C181.900223,261.066498 182.999268,259.658905 183.300705,259.234192 
	C181.237045,255.227966 179.616318,252.081604 177.993546,248.545654 
	C184.043518,247.526962 190.095520,246.897842 196.572937,246.369293 
	C196.710159,250.431915 197.115295,253.553543 202.222046,254.363678 
	C205.580276,254.896439 206.861404,257.635101 204.525131,260.739441 
	C199.722794,267.120514 195.751816,273.820435 193.075409,281.475006 
	C189.996964,290.279449 182.080750,293.744385 173.666656,294.821655 
	C163.195847,296.162201 152.562714,296.182312 142.021530,297.040833 
	C131.319824,297.912415 120.646805,299.132416 109.956795,300.153534 
	C106.262589,300.506439 102.555099,300.720367 98.451233,300.997742 
	C101.804596,295.708557 105.560402,290.419403 109.610962,284.954102 
z"/>
<path fill="#6C7DF9" opacity="1.000000" stroke="none" 
	d="
M236.640274,246.365616 
	C235.308792,250.541946 236.499985,253.533447 239.722305,256.538452 
	C241.022202,257.750702 240.709778,260.765686 240.958099,262.979675 
	C241.020172,263.532959 240.482544,264.211243 240.101761,264.747803 
	C234.941818,272.018616 232.421844,280.062653 231.754639,288.996307 
	C231.536072,291.922913 228.952179,294.884369 226.936371,297.421844 
	C222.541412,302.954224 217.777054,308.191437 213.238998,313.612335 
	C209.503342,318.074707 205.291031,320.968506 199.068863,319.092712 
	C197.693222,318.677979 196.091812,319.013489 194.594376,319.001160 
	C187.813431,318.945343 180.859924,319.785645 174.310501,318.525787 
	C169.733475,317.645325 165.871628,316.966309 161.415359,318.730255 
	C159.843002,319.352661 156.904648,318.299011 155.420883,317.035095 
	C151.096771,313.351685 146.625641,314.368896 141.878494,315.488953 
	C138.678299,316.244019 135.370468,316.862427 132.098511,316.927856 
	C125.132225,317.067169 118.325722,317.055145 111.585930,319.770874 
	C104.640686,322.569366 97.752068,318.388336 90.353737,318.034973 
	C90.199776,317.168945 90.458427,316.358063 91.307388,315.274658 
	C97.572517,316.559692 102.788635,315.904236 108.238647,313.280182 
	C111.809486,311.560883 116.249069,311.371918 120.341850,311.069275 
	C128.179489,310.489655 136.045074,310.247650 143.903351,310.002350 
	C148.588226,309.856079 153.281296,309.984711 157.970551,309.962555 
	C162.300018,309.942108 166.631012,309.794861 170.958130,309.875183 
	C173.987976,309.931488 177.069168,309.985077 180.026367,310.559753 
	C184.756226,311.478973 189.499802,314.927460 194.160294,311.024445 
	C200.193924,305.971436 206.930374,301.268738 211.395691,295.010620 
	C214.190735,291.093353 217.308701,287.732117 220.462875,284.247345 
	C222.057617,282.485443 223.807465,280.587708 224.593231,278.426392 
	C226.317856,273.682648 227.536957,268.748566 228.810715,263.852722 
	C229.086639,262.792206 229.085312,261.373627 228.593674,260.448334 
	C226.330505,256.188782 227.144562,252.135406 229.376740,248.048111 
	C231.195496,247.468582 232.630035,246.907379 234.064575,246.346191 
	C234.804245,246.317352 235.543900,246.288513 236.640274,246.365616 
z"/>
<path fill="#99A4FC" opacity="1.000000" stroke="none" 
	d="
M319.047241,242.768829 
	C329.054749,238.479034 339.062256,234.189224 349.720551,229.620453 
	C349.510864,232.255188 349.439087,235.387512 348.988708,238.464432 
	C345.273804,263.843109 334.308960,285.460968 315.333771,302.872406 
	C314.743835,303.413696 313.935120,303.716553 312.453796,304.049988 
	C308.439758,299.214783 309.704620,294.451477 311.670563,289.698303 
	C312.413513,287.902008 313.675934,286.190979 313.919464,284.338287 
	C315.738953,270.496307 317.362366,256.628510 319.047241,242.768829 
z"/>
<path fill="#7887FA" opacity="1.000000" stroke="none" 
	d="
M259.035858,246.381638 
	C261.389313,246.330566 263.742767,246.279480 266.620605,246.613495 
	C268.441772,246.792236 269.738586,246.585907 271.035370,246.379578 
	C272.088318,246.334595 273.141296,246.289612 274.588867,246.701294 
	C273.212097,252.313217 272.490387,257.519684 272.852692,263.049377 
	C273.094604,266.742126 272.290283,270.622894 271.316010,274.247986 
	C269.839966,279.740082 267.834198,285.091583 266.006531,290.486877 
	C264.118073,296.061615 262.027008,301.572876 260.318024,307.200989 
	C259.517212,309.838226 258.618927,312.854431 259.166534,315.397003 
	C259.991730,319.228485 258.923859,321.075745 255.305878,320.910156 
	C250.838226,320.705688 249.842590,323.057373 249.980606,326.743256 
	C246.617889,326.794525 243.255157,326.845795 239.431305,326.468781 
	C238.445602,325.414825 237.921036,324.789154 237.396484,324.163513 
	C236.934265,325.015747 236.472046,325.867981 236.009827,326.720184 
	C234.934387,326.776367 233.858948,326.832550 232.379150,326.440125 
	C232.047806,324.165070 231.506683,321.991364 232.306915,320.576111 
	C234.898087,315.993469 237.981644,311.689240 240.875534,307.277740 
	C241.865692,305.768341 242.552490,303.875580 243.895844,302.812500 
	C251.893143,296.483826 254.418915,287.885956 255.131226,278.189789 
	C255.380142,274.801605 256.744812,271.319702 258.322662,268.252350 
	C260.027924,264.937195 260.679932,257.860352 257.922089,256.314362 
	C254.045013,254.140945 254.296066,251.354874 255.354218,248.010895 
	C256.820862,247.469055 257.928345,246.925354 259.035858,246.381638 
z"/>
<path fill="#808EFB" opacity="1.000000" stroke="none" 
	d="
M250.431396,326.827728 
	C249.842590,323.057373 250.838226,320.705688 255.305878,320.910156 
	C258.923859,321.075745 259.991730,319.228485 259.166534,315.397003 
	C258.618927,312.854431 259.517212,309.838226 260.318024,307.200989 
	C262.027008,301.572876 264.118073,296.061615 266.006531,290.486877 
	C267.834198,285.091583 269.839966,279.740082 271.316010,274.247986 
	C272.290283,270.622894 273.094604,266.742126 272.852692,263.049377 
	C272.490387,257.519684 273.212097,252.313217 274.974854,246.795135 
	C281.330536,246.280258 287.694855,246.128189 294.467316,246.368286 
	C291.848450,249.260406 290.735840,252.395493 290.875336,256.365906 
	C290.951843,258.544891 290.116333,260.954437 289.078552,262.939240 
	C284.876251,270.975922 283.324432,279.545410 282.885406,288.505127 
	C282.703369,292.220245 281.763214,295.987549 280.603821,299.547455 
	C277.921600,307.783447 274.895233,315.907379 272.008423,324.076721 
	C264.966339,325.021881 257.924255,325.967041 250.431396,326.827728 
z"/>
<path fill="#8896FB" opacity="1.000000" stroke="none" 
	d="
M272.410278,324.107117 
	C274.895233,315.907379 277.921600,307.783447 280.603821,299.547455 
	C281.763214,295.987549 282.703369,292.220245 282.885406,288.505127 
	C283.324432,279.545410 284.876251,270.975922 289.078552,262.939240 
	C290.116333,260.954437 290.951843,258.544891 290.875336,256.365906 
	C290.735840,252.395493 291.848450,249.260406 294.933044,246.416245 
	C299.388031,245.495285 303.785370,244.918533 308.489441,244.692261 
	C305.551483,248.564682 303.942841,252.123428 306.338867,257.108398 
	C308.013611,260.592743 307.556549,264.566010 304.713989,267.802155 
	C304.074982,268.529602 303.180298,269.435028 303.178925,270.259796 
	C303.157379,283.142609 294.322479,294.038452 294.899384,307.055817 
	C294.936188,307.886139 294.297424,309.062531 293.602386,309.555328 
	C290.291199,311.903290 290.742920,314.382935 293.039917,317.071442 
	C286.297333,319.426788 279.554749,321.782135 272.410278,324.107117 
z"/>
<path fill="#697AF8" opacity="1.000000" stroke="none" 
	d="
M228.992508,248.066437 
	C227.144562,252.135406 226.330505,256.188782 228.593674,260.448334 
	C229.085312,261.373627 229.086639,262.792206 228.810715,263.852722 
	C227.536957,268.748566 226.317856,273.682648 224.593231,278.426392 
	C223.807465,280.587708 222.057617,282.485443 220.462875,284.247345 
	C217.308701,287.732117 214.190735,291.093353 211.395691,295.010620 
	C206.930374,301.268738 200.193924,305.971436 194.160294,311.024445 
	C189.499802,314.927460 184.756226,311.478973 180.026367,310.559753 
	C177.069168,309.985077 173.987976,309.931488 170.958130,309.875183 
	C166.631012,309.794861 162.300018,309.942108 157.970551,309.962555 
	C153.281296,309.984711 148.588226,309.856079 143.903351,310.002350 
	C136.045074,310.247650 128.179489,310.489655 120.341850,311.069275 
	C116.249069,311.371918 111.809486,311.560883 108.238647,313.280182 
	C102.788635,315.904236 97.572517,316.559692 91.478981,315.000244 
	C92.399078,312.331055 93.737900,309.663727 95.415054,306.950745 
	C101.478195,307.255829 107.215576,308.015076 112.924171,307.839355 
	C118.337631,307.672699 123.723396,306.544434 129.115707,305.798340 
	C130.419281,305.617950 131.892151,304.724640 132.962708,305.095581 
	C143.978073,308.912262 154.877991,303.711792 165.905762,304.847900 
	C173.566147,305.637115 181.373535,305.012360 189.115189,304.995850 
	C194.720428,304.983917 197.759247,302.228607 199.131668,296.837677 
	C199.755264,294.388153 201.307739,292.139618 202.622040,289.907776 
	C207.265701,282.022430 212.041016,274.450500 219.646103,268.654633 
	C222.083878,266.796753 221.662933,260.829895 221.995102,256.698364 
	C222.201660,254.128891 221.367157,251.475723 221.245636,248.429962 
	C221.491364,247.999817 221.982147,248.002884 222.420593,248.008713 
	C224.903534,248.031845 226.948013,248.049133 228.992508,248.066437 
z"/>
<path fill="#8E9BFC" opacity="1.000000" stroke="none" 
	d="
M293.395905,317.022766 
	C290.742920,314.382935 290.291199,311.903290 293.602386,309.555328 
	C294.297424,309.062531 294.936188,307.886139 294.899384,307.055817 
	C294.322479,294.038452 303.157379,283.142609 303.178925,270.259796 
	C303.180298,269.435028 304.074982,268.529602 304.713989,267.802155 
	C307.556549,264.566010 308.013611,260.592743 306.338867,257.108398 
	C303.942841,252.123428 305.551483,248.564682 308.870056,244.738144 
	C312.027008,243.889923 315.110016,243.346313 318.620148,242.785767 
	C317.362366,256.628510 315.738953,270.496307 313.919464,284.338287 
	C313.675934,286.190979 312.413513,287.902008 311.670563,289.698303 
	C309.704620,294.451477 308.439758,299.214783 312.123474,304.046082 
	C306.295807,308.406586 300.023865,312.690369 293.395905,317.022766 
z"/>
<path fill="#5667E7" opacity="1.000000" stroke="none" 
	d="
M151.571045,357.992432 
	C151.779251,363.688751 151.987457,369.385101 151.768494,375.505951 
	C147.196335,373.193298 143.410767,373.046478 140.103668,377.334534 
	C139.525314,378.084442 138.564346,378.554504 137.744644,379.100647 
	C132.429443,382.641907 127.121864,386.195099 121.778625,389.693787 
	C113.021530,395.427765 106.326927,404.241974 95.689636,407.166748 
	C95.160583,405.992737 94.631523,404.818726 94.355469,403.033569 
	C94.742546,399.612518 94.876633,396.802582 95.354309,393.960693 
	C102.371803,388.895050 108.996056,383.793732 115.736061,378.850189 
	C120.701241,375.208435 126.218811,372.219727 130.768036,368.135590 
	C136.841019,362.683502 142.803741,357.642365 151.571045,357.992432 
z"/>
<path fill="#5465F2" opacity="1.000000" stroke="none" 
	d="
M103.566833,170.915863 
	C109.420364,172.475204 115.006088,174.200562 120.568130,175.999161 
	C125.535034,177.605270 130.462402,179.333939 135.432693,180.929153 
	C138.841614,182.023254 142.300491,182.960800 145.725555,184.005920 
	C149.602707,185.189026 153.643280,186.035446 157.286057,187.730438 
	C160.736816,189.336105 163.609177,191.126740 167.914398,190.201706 
	C174.613983,188.762222 179.892685,192.758667 181.010086,199.359940 
	C173.979446,201.288879 166.946030,202.844925 159.467941,204.083557 
	C154.118378,197.405060 147.265121,193.058472 139.927673,191.587158 
	C134.231140,190.444885 129.418137,188.001617 124.196632,186.155350 
	C121.276016,185.122650 118.092850,184.856613 115.113243,183.961349 
	C109.652672,182.320618 104.255249,180.469727 98.831505,178.706451 
	C100.317245,176.175552 101.802986,173.644653 103.566833,170.915863 
z"/>
<path fill="#8896FB" opacity="1.000000" stroke="none" 
	d="
M95.010727,393.992676 
	C94.876633,396.802582 94.742546,399.612518 94.325668,402.707397 
	C87.216446,391.848022 84.582298,379.400421 83.136055,366.677094 
	C82.541885,361.449951 82.904488,356.114075 83.296616,350.369324 
	C87.586472,350.074738 91.413528,350.202972 95.236244,350.410858 
	C100.337250,350.688263 105.448883,350.900085 110.521286,351.456238 
	C111.448128,351.557892 112.209297,353.170532 112.890915,354.381042 
	C108.743134,361.107666 104.751389,367.538971 100.512947,374.201019 
	C98.514404,380.952057 96.762566,387.472382 95.010727,393.992676 
z"/>
<path fill="#7383FA" opacity="1.000000" stroke="none" 
	d="
M254.995071,248.009018 
	C254.296066,251.354874 254.045013,254.140945 257.922089,256.314362 
	C260.679932,257.860352 260.027924,264.937195 258.322662,268.252350 
	C256.744812,271.319702 255.380142,274.801605 255.131226,278.189789 
	C254.418915,287.885956 251.893143,296.483826 243.895844,302.812500 
	C242.552490,303.875580 241.865692,305.768341 240.875534,307.277740 
	C237.981644,311.689240 234.898087,315.993469 232.306915,320.576111 
	C231.506683,321.991364 232.047806,324.165070 231.982697,326.352844 
	C228.955902,326.769043 225.921219,326.823944 222.438507,326.791901 
	C221.716965,325.254700 221.443420,323.804443 221.173172,322.356232 
	C223.154694,320.700745 225.207184,319.121765 227.079910,317.352570 
	C228.019257,316.465149 229.347839,315.183075 229.279053,314.161743 
	C228.679672,305.261078 236.769272,301.101776 239.862259,294.263489 
	C240.872009,292.031036 241.833755,289.775360 242.759384,287.506653 
	C244.936737,282.169891 247.291931,276.890289 249.123108,271.435822 
	C249.786041,269.461182 250.058884,266.214752 248.939102,265.016724 
	C246.504913,262.412476 246.815063,260.105957 247.755676,257.313446 
	C248.171722,256.078308 248.885742,254.587311 248.536194,253.515106 
	C247.322220,249.791306 249.277496,248.310486 252.880905,247.172287 
	C253.669800,247.053040 253.857101,247.066986 254.142792,247.282257 
	C254.429306,247.729706 254.671005,247.899765 254.974670,247.995224 
	C254.983124,247.996689 254.995071,248.009018 254.995071,248.009018 
z"/>
<path fill="#7887FA" opacity="1.000000" stroke="none" 
	d="
M87.336838,325.200378 
	C88.202278,324.970154 89.107094,324.755981 89.488335,325.108337 
	C94.766594,329.986603 100.885246,328.723694 107.183243,328.131775 
	C113.511246,327.537048 119.939621,328.060333 126.321953,327.961334 
	C128.101578,327.933746 129.965729,327.697510 131.632767,327.108673 
	C137.149628,325.160004 142.948105,327.390442 145.694611,333.181824 
	C138.938202,336.829224 132.109039,339.988495 124.906853,342.981995 
	C122.030136,341.763123 119.574738,340.560852 116.999977,339.727295 
	C115.905510,339.373016 114.075928,339.290283 113.407326,339.937866 
	C108.328117,344.857361 102.077606,341.850861 97.916817,340.229980 
	C91.548935,337.749329 87.389908,338.186462 83.165726,342.984680 
	C84.488083,337.149750 85.810440,331.314789 87.336838,325.200378 
z"/>
<path fill="#7585FA" opacity="1.000000" stroke="none" 
	d="
M161.155182,410.349792 
	C159.242157,417.504700 153.840576,421.275269 148.862091,425.702240 
	C142.286484,431.549438 136.536102,438.324677 130.143555,444.897705 
	C125.705803,441.916229 121.555473,438.737976 117.624741,435.264404 
	C124.873222,433.105682 127.228111,426.169464 132.024704,421.880524 
	C136.849472,417.566406 141.645920,413.213837 146.295715,408.713806 
	C148.445358,406.633423 150.147476,404.098297 152.184280,401.890961 
	C153.526688,400.436249 155.104095,399.198334 156.576294,397.863342 
	C158.088608,401.904755 159.600906,405.946167 161.155182,410.349792 
z"/>
<path fill="#4657D2" opacity="1.000000" stroke="none" 
	d="
M125.279877,343.147736 
	C132.109039,339.988495 138.938202,336.829224 145.989594,333.384155 
	C146.211807,333.098358 146.600174,333.110413 147.186646,333.076965 
	C149.077621,333.054047 150.382111,333.064606 151.686615,333.075165 
	C151.701691,336.739929 151.716766,340.404724 151.281891,344.525330 
	C150.024124,345.115417 149.047653,345.002319 148.433731,345.420898 
	C138.421570,352.247711 128.450409,359.134705 118.480675,366.023560 
	C113.061554,369.767975 107.861687,373.985504 100.759659,373.970276 
	C104.751389,367.538971 108.743134,361.107666 113.186264,354.222015 
	C117.518394,350.227661 121.399132,346.687683 125.279877,343.147736 
z"/>
<path fill="#697AF8" opacity="1.000000" stroke="none" 
	d="
M152.466751,379.017548 
	C153.361557,384.040588 154.256363,389.063599 154.713272,394.535278 
	C150.426392,394.620636 146.960861,394.998077 145.151016,399.185364 
	C144.863205,399.851288 143.991592,400.419739 143.261185,400.715424 
	C136.252319,403.553314 129.737732,406.957062 125.600609,413.764587 
	C124.709885,415.230286 122.732124,415.988495 121.509995,417.308594 
	C117.988281,421.112671 114.596840,425.037323 111.154236,428.914612 
	C108.121048,425.222382 105.087852,421.530121 102.222664,417.201172 
	C104.547241,415.917511 107.077065,415.776642 108.782883,414.518585 
	C112.366493,411.875519 115.468025,408.588501 118.856003,405.668579 
	C125.764458,399.714539 132.719086,393.813721 139.696808,387.941071 
	C140.286728,387.444611 141.229614,387.001617 141.945862,387.083282 
	C145.418594,387.479279 146.227753,385.267883 147.456604,382.644012 
	C148.221344,381.011200 150.736954,380.198395 152.466751,379.017548 
z"/>
<path fill="#4F60DD" opacity="1.000000" stroke="none" 
	d="
M100.512955,374.201019 
	C107.861687,373.985504 113.061554,369.767975 118.480675,366.023560 
	C128.450409,359.134705 138.421570,352.247711 148.433731,345.420898 
	C149.047653,345.002319 150.024124,345.115417 151.186707,344.973022 
	C151.612823,349.003998 151.684158,353.043091 151.663269,357.537292 
	C142.803741,357.642365 136.841019,362.683502 130.768036,368.135590 
	C126.218811,372.219727 120.701241,375.208435 115.736061,378.850189 
	C108.996056,383.793732 102.371803,388.895050 95.354309,393.960693 
	C96.762566,387.472382 98.514404,380.952057 100.512955,374.201019 
z"/>
<path fill="#7080F9" opacity="1.000000" stroke="none" 
	d="
M81.575027,228.929932 
	C82.319077,224.533920 83.063118,220.137894 84.340752,215.370117 
	C85.868523,214.955566 87.243752,215.321381 87.796844,214.805603 
	C92.374405,210.536713 98.471107,213.404160 103.644417,211.351410 
	C106.012726,210.411652 109.608360,212.269302 112.556160,213.160187 
	C116.259911,214.279495 119.789459,216.122131 123.549652,216.854996 
	C125.970932,217.326920 127.218102,217.902237 127.121658,220.408615 
	C123.943375,223.101196 120.765091,225.793793 117.283562,228.262909 
	C116.077423,227.516891 114.982956,226.365723 114.302490,226.573090 
	C109.613541,228.002014 105.026802,229.762283 100.370102,231.303986 
	C99.143890,231.709961 97.729042,232.064529 96.500862,231.855347 
	C91.504433,231.004333 86.546898,229.925064 81.575027,228.929932 
z"/>
<path fill="#6072F4" opacity="1.000000" stroke="none" 
	d="
M152.505737,378.637939 
	C150.736954,380.198395 148.221344,381.011200 147.456604,382.644012 
	C146.227753,385.267883 145.418594,387.479279 141.945862,387.083282 
	C141.229614,387.001617 140.286728,387.444611 139.696808,387.941071 
	C132.719086,393.813721 125.764458,399.714539 118.856003,405.668579 
	C115.468025,408.588501 112.366493,411.875519 108.782883,414.518585 
	C107.077065,415.776642 104.547241,415.917511 102.148529,416.869873 
	C99.897079,414.066986 97.887779,410.958649 95.784058,407.508545 
	C106.326927,404.241974 113.021530,395.427765 121.778625,389.693787 
	C127.121864,386.195099 132.429443,382.641907 137.744644,379.100647 
	C138.564346,378.554504 139.525314,378.084442 140.103668,377.334534 
	C143.410767,373.046478 147.196335,373.193298 151.725647,375.974182 
	C152.254868,376.764679 152.399796,377.511505 152.505737,378.637939 
z"/>
<path fill="#5A6CF5" opacity="1.000000" stroke="none" 
	d="
M98.559448,178.925964 
	C104.255249,180.469727 109.652672,182.320618 115.113243,183.961349 
	C118.092850,184.856613 121.276016,185.122650 124.196632,186.155350 
	C129.418137,188.001617 134.231140,190.444885 139.927673,191.587158 
	C147.265121,193.058472 154.118378,197.405060 159.063400,204.164566 
	C156.032211,205.725662 152.960876,206.888351 149.194885,207.906830 
	C145.386536,206.344101 141.875153,205.441956 139.234924,203.408630 
	C131.798645,197.681671 122.963158,196.069138 114.247536,193.988480 
	C109.326408,192.813690 104.363434,191.814621 99.439034,190.652847 
	C97.412827,190.174820 95.438469,189.477036 93.440536,188.879211 
	C95.056152,185.634628 96.671768,182.390060 98.559448,178.925964 
z"/>
<path fill="#6072F4" opacity="1.000000" stroke="none" 
	d="
M93.231339,189.121246 
	C95.438469,189.477036 97.412827,190.174820 99.439034,190.652847 
	C104.363434,191.814621 109.326408,192.813690 114.247536,193.988480 
	C122.963158,196.069138 131.798645,197.681671 139.234924,203.408630 
	C141.875153,205.441956 145.386536,206.344101 148.827560,207.925812 
	C144.104324,210.736389 139.053772,213.383774 133.359650,215.913483 
	C130.623077,210.512451 126.438972,208.012466 121.095520,207.022354 
	C119.816093,206.785263 118.268250,206.794434 117.340721,206.061539 
	C112.434227,202.184494 106.452553,203.066254 100.922791,201.879913 
	C97.083603,201.056244 93.488770,199.093658 89.784760,197.639923 
	C90.863884,194.881042 91.943008,192.122162 93.231339,189.121246 
z"/>
<path fill="#6C7DF9" opacity="1.000000" stroke="none" 
	d="
M111.272888,429.218262 
	C114.596840,425.037323 117.988281,421.112671 121.509995,417.308594 
	C122.732124,415.988495 124.709885,415.230286 125.600609,413.764587 
	C129.737732,406.957062 136.252319,403.553314 143.261185,400.715424 
	C143.991592,400.419739 144.863205,399.851288 145.151016,399.185364 
	C146.960861,394.998077 150.426392,394.620636 154.714111,394.971619 
	C155.586914,395.703125 156.020996,396.446930 156.515686,397.527039 
	C155.104095,399.198334 153.526688,400.436249 152.184280,401.890961 
	C150.147476,404.098297 148.445358,406.633423 146.295715,408.713806 
	C141.645920,413.213837 136.849472,417.566406 132.024704,421.880524 
	C127.228111,426.169464 124.873222,433.105682 117.482117,434.968201 
	C115.210442,433.152191 113.300995,431.337067 111.272888,429.218262 
z"/>
<path fill="#808EFB" opacity="1.000000" stroke="none" 
	d="
M103.020645,244.006622 
	C93.823135,257.134216 86.564865,271.222168 81.909714,286.601959 
	C81.772591,287.054962 81.515282,287.471588 80.713074,287.704803 
	C78.766273,272.276825 78.769669,257.034546 80.328621,241.382843 
	C82.571045,241.876450 85.389786,242.439774 85.740997,243.694046 
	C86.761009,247.336670 88.336472,246.887848 91.227112,246.031952 
	C95.025200,244.907349 99.077606,244.641678 103.020645,244.006622 
z"/>
<path fill="#697AF8" opacity="1.000000" stroke="none" 
	d="
M89.539474,197.910736 
	C93.488770,199.093658 97.083603,201.056244 100.922791,201.879913 
	C106.452553,203.066254 112.434227,202.184494 117.340721,206.061539 
	C118.268250,206.794434 119.816093,206.785263 121.095520,207.022354 
	C126.438972,208.012466 130.623077,210.512451 133.023407,216.001343 
	C131.473755,217.515518 129.616776,218.824142 127.440720,220.270691 
	C127.218102,217.902237 125.970932,217.326920 123.549652,216.854996 
	C119.789459,216.122131 116.259911,214.279495 112.556160,213.160187 
	C109.608360,212.269302 106.012726,210.411652 103.644417,211.351410 
	C98.471107,213.404160 92.374405,210.536713 87.796844,214.805603 
	C87.243752,215.321381 85.868523,214.955566 84.476135,214.996567 
	C85.816681,209.390366 87.555435,203.785950 89.539474,197.910736 
z"/>
<path fill="#7585FA" opacity="1.000000" stroke="none" 
	d="
M103.300552,243.830017 
	C99.077606,244.641678 95.025200,244.907349 91.227112,246.031952 
	C88.336472,246.887848 86.761009,247.336670 85.740997,243.694046 
	C85.389786,242.439774 82.571045,241.876450 80.471619,240.995239 
	C80.445747,237.189682 80.827789,233.386398 81.392426,229.256531 
	C86.546898,229.925064 91.504433,231.004333 96.500862,231.855347 
	C97.729042,232.064529 99.143890,231.709961 100.370102,231.303986 
	C105.026802,229.762283 109.613541,228.002014 114.302490,226.573090 
	C114.982956,226.365723 116.077423,227.516891 116.990189,228.389435 
	C112.526855,233.710770 108.053650,238.682083 103.300552,243.830017 
z"/>
<path fill="#7F8DFB" opacity="1.000000" stroke="none" 
	d="
M124.906845,342.981995 
	C121.399132,346.687683 117.518394,350.227661 113.342300,353.926666 
	C112.209297,353.170532 111.448128,351.557892 110.521286,351.456238 
	C105.448883,350.900085 100.337250,350.688263 95.236244,350.410858 
	C91.413528,350.202972 87.586472,350.074738 83.363663,349.958221 
	C82.987816,347.955170 83.009659,345.904938 83.098618,343.419678 
	C87.389908,338.186462 91.548935,337.749329 97.916817,340.229980 
	C102.077606,341.850861 108.328117,344.857361 113.407326,339.937866 
	C114.075928,339.290283 115.905510,339.373016 116.999977,339.727295 
	C119.574738,340.560852 122.030136,341.763123 124.906845,342.981995 
z"/>
<path fill="#5A6CF5" opacity="1.000000" stroke="none" 
	d="
M409.683411,133.592804 
	C411.492462,132.465103 413.364868,131.735001 415.626038,131.005219 
	C415.188629,134.369293 414.362488,137.733063 413.536377,141.096817 
	C412.888580,141.098358 412.240753,141.099899 411.592957,141.101440 
	C410.977570,138.731094 410.362183,136.360748 409.683411,133.592804 
z"/>
<path fill="#7887FA" opacity="1.000000" stroke="none" 
	d="
M151.887421,332.841980 
	C150.382111,333.064606 149.077621,333.054047 147.379822,333.056488 
	C146.947540,332.746277 146.951843,332.410583 146.862625,332.101898 
	C146.197128,329.799866 144.692078,326.931488 148.414368,326.224030 
	C151.681534,325.603088 152.998306,327.965118 153.006897,331.417969 
	C152.701843,332.066498 152.395020,332.337646 151.887421,332.841980 
z"/>
<path fill="#8896FB" opacity="1.000000" stroke="none" 
	d="
M229.376740,248.048126 
	C226.948013,248.049133 224.903534,248.031845 222.320007,247.794510 
	C221.586960,247.298569 221.322250,247.142593 220.986877,247.106537 
	C220.986877,247.106537 220.932602,246.727112 220.919373,246.536407 
	C224.987167,246.271637 229.068176,246.197586 233.606873,246.234863 
	C232.630035,246.907379 231.195496,247.468582 229.376740,248.048126 
z"/>
<path fill="#8896FB" opacity="1.000000" stroke="none" 
	d="
M254.044418,247.080933 
	C253.857101,247.066986 253.669800,247.053040 253.200439,247.019714 
	C252.918365,247.000351 252.926147,246.689682 252.925735,246.535004 
	C254.677704,246.308289 256.430084,246.236237 258.609161,246.272919 
	C257.928345,246.925354 256.820862,247.469055 255.354218,248.010895 
	C254.995071,248.009018 254.983124,247.996689 254.880615,247.788956 
	C254.599106,247.318314 254.354553,247.151550 254.044418,247.080933 
z"/>
<path fill="#4D5FEF" opacity="1.000000" stroke="none" 
	d="
M314.482849,116.521790 
	C314.415741,117.625069 313.988342,118.709663 313.560974,119.794250 
	C313.047211,119.087242 312.533447,118.380234 312.011780,117.287109 
	C312.710114,116.768372 313.416382,116.635742 314.482849,116.521790 
z"/>
<path fill="#7383FA" opacity="1.000000" stroke="none" 
	d="
M236.378143,326.800842 
	C236.472046,325.867981 236.934265,325.015747 237.396484,324.163513 
	C237.921036,324.789154 238.445602,325.414825 238.980103,326.382507 
	C238.242188,326.776855 237.494324,326.829163 236.378143,326.800842 
z"/>
<path fill="#8896FB" opacity="1.000000" stroke="none" 
	d="
M270.636078,246.272842 
	C269.738586,246.585907 268.441772,246.792236 267.054993,246.694275 
	C268.055603,246.315353 269.146210,246.240723 270.636078,246.272842 
z"/>
<path fill="#4D5FEF" opacity="1.000000" stroke="none" 
	d="
M290.692871,117.459480 
	C290.837372,118.577499 290.646576,119.575249 290.455811,120.572998 
	C290.194275,120.587173 289.932739,120.601341 289.671173,120.615517 
	C289.444550,119.812599 289.217926,119.009689 288.981750,117.887970 
	C289.434021,117.492508 289.895844,117.415855 290.692871,117.459480 
z"/>
<path fill="#6072F6" opacity="1.000000" stroke="none" 
	d="
M220.991913,247.329422 
	C221.322250,247.142593 221.586960,247.298569 221.881561,247.788681 
	C221.982147,248.002884 221.491364,247.999817 221.245987,247.998993 
	C221.000610,247.998169 220.996964,247.552307 220.991913,247.329422 
z"/>
<path fill="#6C7DF9" opacity="1.000000" stroke="none" 
	d="
M254.142792,247.282257 
	C254.354553,247.151550 254.599106,247.318314 254.872162,247.787491 
	C254.671005,247.899765 254.429306,247.729706 254.142792,247.282257 
z"/>
</svg>